<?xml version="1.0" encoding="UTF-8" standalone="no"?>
<svg
   width="256"
   height="256"
   viewBox="0 0 256 256"
   version="1.1"
   id="svg318"
   sodipodi:docname="icon.svg"
   inkscape:version="1.2.2 (732a01da63, 2022-12-09)"
   xmlns:inkscape="http://www.inkscape.org/namespaces/inkscape"
   xmlns:sodipodi="http://sodipodi.sourceforge.net/DTD/sodipodi-0.dtd"
   xmlns="http://www.w3.org/2000/svg"
   xmlns:svg="http://www.w3.org/2000/svg">
  <defs
     id="defs322" />
  <sodipodi:namedview
     id="namedview320"
     pagecolor="#ffffff"
     bordercolor="#000000"
     borderopacity="0.25"
     inkscape:showpageshadow="2"
     inkscape:pageopacity="0.0"
     inkscape:pagecheckerboard="0"
     inkscape:deskcolor="#d1d1d1"
     showgrid="false"
     inkscape:zoom="1.1559539"
     inkscape:cx="3.8928889"
     inkscape:cy="162.63625"
     inkscape:window-width="1920"
     inkscape:window-height="1017"
     inkscape:window-x="-8"
     inkscape:window-y="-8"
     inkscape:window-maximized="1"
     inkscape:current-layer="svg318" />
  <!-- Film strip (fills canvas, centered vertically) -->
  <path
     id="path312"
     style="fill:#37483e"
     d="m 46.942294,73.142578 c 0.246582,53.414552 0.625,123.750002 0.625,123.750002 h 9.419922 v -6.21289 h 16.28125 v 6.21289 H 178.24112 v -6.21289 h 16.2832 v 6.21289 H 206.1005 V 73.142578 h -11.57618 v 6.52149 h -16.2832 v -6.52149 H 73.268466 v 6.51758 h -16.28125 v -6.51758 z m 10.044922,23.99024 h 16.28125 v 13.710932 h -16.28125 z m 121.253904,0.002 h 16.2832 v 13.710942 h -16.2832 z M 56.987216,128.31446 h 16.28125 v 13.71093 h -16.28125 z m 121.253904,0.002 h 16.2832 v 13.71289 h -16.2832 z M 56.987216,159.49805 h 16.28125 v 13.71094 h -16.28125 z m 121.253904,0.002 h 16.2832 v 13.71094 h -16.2832 z" />
  <!-- Red thick downward arrow centered over film strip -->
  <path
     id="rect544"
     style="fill:#ccffaa;stroke:#000000;stroke-width:0;stroke-linecap:round;stroke-linejoin:round;stroke-opacity:0.26"
     d="M 108.35441,102.59668 V 142.3877 H 82.291906 l 22.115234,16.52539 22.11523,16.52539 22.11329,-16.52539 22.11523,-16.52539 h -26.0625 v -39.79102 z" />
</svg>
