<?xml version="1.0" encoding="UTF-8" standalone="no"?>
<svg
   width="160"
   height="120"
   viewBox="0 0 160 120"
   version="1.1"
   id="svg318"
   sodipodi:docname="icon.svg"
   inkscape:version="1.2.2 (732a01da63, 2022-12-09)"
   xmlns:inkscape="http://www.inkscape.org/namespaces/inkscape"
   xmlns:sodipodi="http://sodipodi.sourceforge.net/DTD/sodipodi-0.dtd"
   xmlns="http://www.w3.org/2000/svg"
   xmlns:svg="http://www.w3.org/2000/svg">
  <defs
     id="defs322" />
  <sodipodi:namedview
     id="namedview320"
     pagecolor="#ffffff"
     bordercolor="#000000"
     borderopacity="0.25"
     inkscape:showpageshadow="2"
     inkscape:pageopacity="0"
     inkscape:pagecheckerboard="false"
     inkscape:deskcolor="#d1d1d1"
     showgrid="false"
     inkscape:zoom="2.3119078"
     inkscape:cx="24.438691"
     inkscape:cy="80.885579"
     inkscape:window-width="1920"
     inkscape:window-height="1017"
     inkscape:window-x="-8"
     inkscape:window-y="-8"
     inkscape:window-maximized="1"
     inkscape:current-layer="svg318" />
  <!-- Film strip (fills canvas, centered vertically) -->
  <!-- Red thick downward arrow centered over film strip -->
  <path
     id="path312"
     style="fill:#37483e;stroke-width:0.987333;fill-rule:evenodd"
     d="M -0.15292812,-0.15292722 C 0.09495805,51.643 -0.13633095,120.15293 -0.13633095,120.15293 L 10.098049,120 v -6.02462 H 26.46541 V 120 h 105.52786 v -6.02462 h 16.36932 V 120 H 160 V -9.9999994e-8 H 148.36259 V 6.323869 H 131.99327 V -9.9999994e-8 H 26.46541 V 6.3200775 H 10.098049 V -9.9999994e-8 Z M 10.098049,23.263263 H 26.46541 V 36.55871 H 10.098049 Z m 121.895221,0.0019 h 16.36932 V 36.560659 H 131.99327 Z M 10.098049,53.500005 H 26.46541 V 66.795452 H 10.098049 Z m 121.895221,0.0019 h 16.36932 V 66.799292 H 131.99327 Z M 10.098049,83.738638 H 26.46541 V 97.034094 H 10.098049 Z m 121.895221,0.0019 h 16.36932 v 13.295457 h -16.36932 z"
     sodipodi:nodetypes="ccccccccccccccccccccccccccccccccccccccccccccccccccc" />
  <path
     id="rect544"
     style="fill:#ccffaa;stroke:#000000;stroke-width:0;stroke-linecap:round;stroke-linejoin:round;stroke-opacity:0.26"
     d="m 61.736928,28.561553 v 38.58523 H 35.536575 l 22.232206,16.024621 22.232197,16.02462 22.230252,-16.02462 22.23219,-16.024621 H 98.263078 v -38.58523 z" />
</svg>
